:SAMPLES-PER-SECOND 30
:FULLY-SPECIFIED
:DEGREES
582
root  -48.3852 34.6567 -0.442472 -148.889 84.5767 -151.074
RightUpLeg  -5.28845 -7.98612 -4.43614
RightLeg  11.3951 9.10707 1.23008
RightFoot  4.98521 -0.027698 0.930661
RightToes  -38.7068 -0.208236 -0.307701
Spine  -1.8988 0.770271 -0.765695
Spine1  -3.58355 1.75498 -0.768336
HEad  -91.7662 -3.059 11.1989
LeftShoulder1  -1.94126e-019 -3.10601e-018 -2.51263e-017
LeftArm  29.1791 -12.1256 -79.6271
LeftForeArm  163.995 -62.3409 -160.405
LeftHand  -0.708197 2.63958 29.5534
RightShoulder  -4.96962e-017 0 -2.36833e-017
RightArm  17.1951 7.34078 75.5867
RightForeArm  -178.977 61.567 162.739
RightHand  0.365321 -6.83251 -28.9924
LeftUpLeg  -5.37049 9.69434 3.9679
LeftLeg  20.2931 15.415 4.5311
LeftFoot  -3.36499 -0.0272431 -0.765904
LeftToes  -18.3207 1.83942e-006 5.51297e-008
583
root  -48.2409 34.6529 -0.173487 -148.16 84.6868 -150.171
RightUpLeg  -5.26845 -8.03445 -3.99978
RightLeg  12.0545 9.13976 1.34115
RightFoot  4.46251 -0.021382 0.849072
RightToes  -38.1184 -0.203629 -0.304248
Spine  -2.00362 0.701387 -0.777559
Spine1  -3.79614 1.6051 -0.784182
HEad  -92.9838 -2.65714 11.0992
LeftShoulder1  -1.94126e-019 -3.10601e-018 -2.51263e-017
LeftArm  32.182 -11.3195 -77.1432
LeftForeArm  165.705 -62.5114 -160.439
LeftHand  -0.567637 3.3154 31.408
RightShoulder  -4.96962e-017 0 -2.36833e-017
RightArm  21.027 6.7229 72.8354
RightForeArm  -176.599 61.5452 162.97
RightHand  0.407627 -6.88423 -30.9317
LeftUpLeg  -4.85607 9.41723 4.47397
LeftLeg  20.0867 15.6475 4.53738
LeftFoot  -3.01694 -0.0221466 -0.67943
LeftToes  -19.1582 1.83942e-006 5.51297e-008
584
root  -48.0744 34.6521 0.0976654 -147.832 84.463 -149.589
RightUpLeg  -4.77036 -7.16522 -3.34944
RightLeg  12.1071 8.06493 1.19203
RightFoot  3.97408 -0.010422 0.698737
RightToes  -36.7578 -0.193115 -0.296084
Spine  -2.08023 0.594628 -0.811399
Spine1  -3.96091 1.37544 -0.842491
HEad  -92.947 -2.6667 11.0442
LeftShoulder1  -1.94126e-019 -3.10601e-018 -2.51263e-017
LeftArm  35.3282 -10.6685 -75.0119
LeftForeArm  166.974 -62.9372 -160.227
LeftHand  -0.527149 3.54793 32.8617
RightShoulder  -4.96962e-017 0 -2.36833e-017
RightArm  24.7538 5.3897 70.764
RightForeArm  -175.416 61.9984 162.763
RightHand  0.481395 -6.9258 -34.9227
LeftUpLeg  -4.40906 8.92822 5.127
LeftLeg  20.0203 16.0003 4.61692
LeftFoot  -2.66742 -0.0176603 -0.596985
LeftToes  -20.4287 1.83942e-006 5.51297e-008
585
root  -47.9048 34.6592 0.345113 -148.083 84.0285 -149.656
RightUpLeg  -4.1382 -6.5682 -2.69444
RightLeg  11.83 7.08495 1.0131
RightFoot  3.7387 -0.0037844 0.602941
RightToes  -36.3542 -0.190034 -0.293615
Spine  -2.10235 0.460787 -0.704818
Spine1  -4.00377 1.09303 -0.618162
HEad  -92.6135 -2.93978 10.6619
LeftShoulder1  -1.94126e-019 -3.10601e-018 -2.51263e-017
LeftArm  37.7151 -10.0379 -73.3957
LeftForeArm  166.576 -62.6275 -160.434
LeftHand  -0.531403 3.50889 32.4388
RightShoulder  -4.96962e-017 0 -2.36833e-017
RightArm  28.2012 3.94752 68.954
RightForeArm  -175.886 61.5685 163.016
RightHand  0.82599 -7.78834 -38.0607
LeftUpLeg  -3.95276 7.91287 5.73644
LeftLeg  19.9096 16.3042 4.66844
LeftFoot  -2.53374 -0.0162662 -0.573978
LeftToes  -20.0635 1.83942e-006 5.51297e-008
586
root  -47.7149 34.6893 0.568937 -148.905 83.7166 -150.353
RightUpLeg  -3.33801 -6.74285 -2.27101
RightLeg  11.1525 6.9536 0.910972
RightFoot  3.68342 -0.00302398 0.585438
RightToes  -35.9685 -0.187294 -0.291394
Spine  -2.2276 0.377941 -0.610197
Spine1  -4.24947 0.918225 -0.418305
HEad  -92.1072 -3.03514 10.2152
LeftShoulder1  -1.94126e-019 -3.10601e-018 -2.51263e-017
LeftArm  39.9866 -9.08375 -72.3034
LeftForeArm  165.569 -62.0152 -160.809
LeftHand  -0.492917 3.63443 32.2674
RightShoulder  -4.96962e-017 0 -2.36833e-017
RightArm  31.2137 2.16437 67.9742
RightForeArm  -175.595 61.133 163.333
RightHand  1.11147 -8.44424 -40.0227
LeftUpLeg  -3.22603 7.65691 6.24515
LeftLeg  18.9702 16.4609 4.42651
LeftFoot  -1.75218 -0.00765685 -0.339168
LeftToes  -21.5964 1.83942e-006 5.51297e-008
587
root  -47.5486 34.7272 0.769412 -149.778 83.5728 -151.388
RightUpLeg  -2.76082 -7.23916 -2.01435
RightLeg  10.2277 7.27908 0.834583
RightFoot  3.75166 -0.00534145 0.611035
RightToes  -35.6636 -0.184802 -0.289293
Spine  -2.46763 0.386852 -0.552776
Spine1  -4.72062 0.931888 -0.294553
HEad  -91.5064 -3.11199 9.91148
LeftShoulder1  -1.94126e-019 -3.10601e-018 -2.51263e-017
LeftArm  42.1387 -8.05277 -71.7695
LeftForeArm  165.964 -61.3166 -161.364
LeftHand  -0.512128 3.57184 32.3575
RightShoulder  -4.96962e-017 0 -2.36833e-017
RightArm  33.2909 0.379754 67.6267
RightForeArm  -174.747 60.6614 163.713
RightHand  1.16784 -8.48212 -41.3617
LeftUpLeg  -2.48185 7.02008 6.49852
LeftLeg  17.5632 16.8412 4.09289
LeftFoot  -1.11009 -0.00300558 -0.148715
LeftToes  -21.6073 1.83942e-006 5.51297e-008
588
root  -47.3862 34.767 0.970278 -149.857 83.535 -151.61
RightUpLeg  -2.1994 -7.54203 -1.70211
RightLeg  9.30123 7.4999 0.737552
RightFoot  3.91311 -0.00818795 0.643416
RightToes  -35.3857 -0.182711 -0.287152
Spine  -2.68155 0.444691 -0.466958
Spine1  -5.13784 1.04779 -0.119369
HEad  -90.4101 -3.01976 9.68113
LeftShoulder1  -1.94126e-019 -3.10601e-018 -2.51263e-017
LeftArm  43.8002 -7.51387 -71.4327
LeftForeArm  167.568 -60.7334 -161.927
LeftHand  -0.495809 3.66847 33.0961
RightShoulder  -4.96962e-017 0 -2.36833e-017
RightArm  34.7377 -0.851306 67.631
RightForeArm  -173.648 60.3265 164.019
RightHand  1.13126 -8.26758 -42.8242
LeftUpLeg  -1.69211 6.86372 6.82517
LeftLeg  15.9875 17.1349 3.67507
LeftFoot  -0.168839 -2.44101e-005 0.144778
LeftToes  -22.8502 1.83942e-006 5.51297e-008
589
root  -47.2518 34.798 1.14696 -150.666 83.4502 -152.581
RightUpLeg  -1.73258 -7.46374 -1.43081
RightLeg  8.47532 7.24537 0.607685
RightFoot  3.98241 -0.00819511 0.634558
RightToes  -34.9423 -0.179308 -0.284807
Spine  -2.90795 0.489348 -0.398939
Spine1  -5.57465 1.14253 0.018775
HEad  -89.1086 -2.8051 9.64325
LeftShoulder1  -1.94126e-019 -3.10601e-018 -2.51263e-017
LeftArm  44.5745 -7.49536 -71.2335
LeftForeArm  168.695 -60.455 -162.22
LeftHand  -0.5253 3.58277 33.3765
RightShoulder  -4.96962e-017 0 -2.36833e-017
RightArm  35.303 -1.48066 67.7611
RightForeArm  -172.316 60.1387 164.247
RightHand  1.03655 -7.95568 -43.8125
LeftUpLeg  -1.00271 6.38389 7.01127
LeftLeg  14.5321 17.5208 3.30049
LeftFoot  0.663437 -0.00145041 0.41214
LeftToes  -23.5412 1.83942e-006 5.51297e-008
590
root  -47.1529 34.8194 1.28699 -152.884 83.1603 -154.896
RightUpLeg  -1.3445 -7.24798 -1.25429
RightLeg  7.91606 6.62381 0.490917
RightFoot  3.96179 -0.00581503 0.591014
RightToes  -34.5021 -0.17539 -0.282007
Spine  -3.10469 0.457978 -0.360059
Spine1  -5.95488 1.08332 0.101148
HEad  -87.8745 -2.47721 9.78637
LeftShoulder1  -1.94126e-019 -3.10601e-018 -2.51263e-017
LeftArm  44.7123 -7.94768 -71.0932
LeftForeArm  168.853 -60.3321 -162.315
LeftHand  -0.550174 3.50384 33.4744
RightShoulder  -4.96962e-017 0 -2.36833e-017
RightArm  35.0702 -1.55499 67.9792
RightForeArm  -171.966 60.1475 164.268
RightHand  0.958537 -7.75799 -43.8492
LeftUpLeg  -0.455743 5.6115 7.05653
LeftLeg  13.3051 17.9499 2.98944
LeftFoot  1.38056 -0.00591473 0.652514
LeftToes  -24.0715 1.83942e-006 5.51297e-008
591
root  -47.0919 34.8342 1.40199 -155.798 82.6759 -157.856
RightUpLeg  -1.06024 -7.14549 -1.15002
RightLeg  7.63421 5.9338 0.410726
RightFoot  3.85305 -0.0026005 0.535057
RightToes  -33.9183 -0.171813 -0.279094
Spine  -3.20884 0.385239 -0.333482
Spine1  -6.1531 0.940241 0.159698
HEad  -87.037 -2.1826 9.98924
LeftShoulder1  -1.94126e-019 -3.10601e-018 -2.51263e-017
LeftArm  44.2947 -8.60047 -71.1176
LeftForeArm  168.241 -60.4377 -162.186
LeftHand  -0.556995 3.4693 33.2768
RightShoulder  -4.96962e-017 0 -2.36833e-017
RightArm  34.2811 -1.2685 68.2495
RightForeArm  -172.585 60.2917 164.123
RightHand  1.00964 -7.90601 -43.5469
LeftUpLeg  -0.137194 5.25222 7.13022
LeftLeg  12.4243 17.7397 2.681
LeftFoot  1.95944 -0.0114852 0.833187
LeftToes  -24.4152 1.83942e-006 5.51297e-008
592
root  -47.0583 34.8403 1.49044 -158.798 81.9549 -160.863
RightUpLeg  -0.84967 -7.62178 -1.13851
RightLeg  7.55556 5.6339 0.382302
RightFoot  3.69504 -0.000916437 0.500566
RightToes  -33.5619 -0.169202 -0.276247
Spine  -3.20152 0.261484 -0.277488
Spine1  -6.1318 0.695245 0.279666
HEad  -86.9498 -1.91546 10.0431
LeftShoulder1  -1.94126e-019 -3.10601e-018 -2.51263e-017
LeftArm  43.512 -9.1117 -71.4329
LeftForeArm  167.467 -60.8346 -161.839
LeftHand  -0.545305 3.49346 33.0038
RightShoulder  -4.96962e-017 0 -2.36833e-017
RightArm  33.1974 -0.862228 68.4591
RightForeArm  -173.358 60.5532 163.89
RightHand  1.00438 -7.92508 -43.0677
LeftUpLeg  -0.110894 5.17688 7.25187
LeftLeg  12.0247 17.0065 2.45437
LeftFoot  2.34207 -0.0151456 0.923332
LeftToes  -24.915 1.83942e-006 5.51297e-008
593
root  -47.0568 34.8381 1.56231 -161.233 81.1794 -163.265
RightUpLeg  -0.79604 -8.15242 -1.1393
RightLeg  7.77422 5.36117 0.384404
RightFoot  3.46119 0.00101555 0.46223
RightToes  -33.2956 -0.166067 -0.274206
Spine  -3.09409 0.165155 -0.186823
Spine1  -5.91738 0.502808 0.46458
HEad  -87.6328 -1.65952 10.0143
LeftShoulder1  -1.94126e-019 -3.10601e-018 -2.51263e-017
LeftArm  42.478 -9.25344 -71.9367
LeftForeArm  166.674 -61.3933 -161.365
LeftHand  -0.573562 3.36924 32.5667
RightShoulder  -4.96962e-017 0 -2.36833e-017
RightArm  31.9617 -0.505464 68.6761
RightForeArm  -174.259 60.9154 163.578
RightHand  1.04164 -8.0682 -42.3981
LeftUpLeg  -0.355001 5.08867 7.35815
LeftLeg  12.1417 16.2551 2.38236
LeftFoot  2.49954 -0.0147483 0.93571
LeftToes  -25.1138 1.83942e-006 5.51297e-008
594
root  -47.0716 34.832 1.61925 -163.101 80.4517 -165.115
RightUpLeg  -0.839411 -8.51358 -1.12343
RightLeg  8.09061 4.95007 0.382495
RightFoot  3.20809 0.0032952 0.417446
RightToes  -32.8325 -0.162833 -0.272907
Spine  -2.93697 0.11071 -0.0854431
Spine1  -5.60736 0.391514 0.667218
HEad  -88.7437 -1.34407 10.1284
LeftShoulder1  -1.94126e-019 -3.10601e-018 -2.51263e-017
LeftArm  41.5463 -9.19937 -72.4779
LeftForeArm  165.702 -61.9767 -160.84
LeftHand  -0.553807 3.42398 32.3336
RightShoulder  -4.96962e-017 0 -2.36833e-017
RightArm  30.7509 -0.275718 68.983
RightForeArm  -175.273 61.3887 163.174
RightHand  1.0915 -8.26409 -41.5431
LeftUpLeg  -0.684572 4.77042 7.39992
LeftLeg  12.3832 15.8333 2.38941
LeftFoot  2.5596 -0.0141497 0.932024
LeftToes  -25.2129 1.83942e-006 5.51297e-008
595
root  -47.0982 34.83 1.65812 -164.679 79.7992 -166.712
RightUpLeg  -0.95913 -8.67129 -1.13312
RightLeg  8.42224 4.42054 0.367452
RightFoot  2.98784 0.00538009 0.373369
RightToes  -32.3552 -0.160471 -0.271789
Spine  -2.78151 0.101049 0.0194715
Spine1  -5.30193 0.37003 0.873393
HEad  -89.7953 -1.11098 10.3555
LeftShoulder1  -1.94126e-019 -3.10601e-018 -2.51263e-017
LeftArm  40.6941 -8.9857 -72.9269
LeftForeArm  164.392 -62.5808 -160.244
LeftHand  -0.528402 3.49694 32.0557
RightShoulder  -4.96962e-017 0 -2.36833e-017
RightArm  29.817 -0.209798 69.2777
RightForeArm  -176.285 61.9169 162.72
RightHand  1.13417 -8.44175 -40.7742
LeftUpLeg  -0.94239 4.25735 7.34171
LeftLeg  12.4679 15.6262 2.38226
LeftFoot  2.74781 -0.0171829 0.973617
LeftToes  -25.6769 1.83942e-006 5.51297e-008
596
root  -47.1301 34.8327 1.68184 -166.255 79.2032 -168.364
RightUpLeg  -1.12417 -8.84229 -1.22285
RightLeg  8.71678 3.94896 0.348819
RightFoot  2.78858 0.00684168 0.337091
RightToes  -32.0346 -0.159111 -0.270843
Spine  -2.65699 0.119625 0.129078
Spine1  -5.05606 0.406699 1.08707
HEad  -90.3609 -0.979288 10.5785
LeftShoulder1  -1.94126e-019 -3.10601e-018 -2.51263e-017
LeftArm  39.9799 -8.5857 -73.204
LeftForeArm  163.025 -63.069 -159.714
LeftHand  -0.504341 3.55565 31.5905
RightShoulder  -4.96962e-017 0 -2.36833e-017
RightArm  29.2534 -0.278174 69.5046
RightForeArm  -177.21 62.4466 162.257
RightHand  1.18952 -8.65112 -40.1189
LeftUpLeg  -1.09019 3.9839 7.22553
LeftLeg  12.2016 15.2799 2.25912
LeftFoot  3.01787 -0.0216449 1.02801
LeftToes  -25.9971 1.83942e-006 5.51297e-008
